<?xml version="1.0" standalone="no"?>
<!DOCTYPE svg PUBLIC "-//W3C//DTD SVG 20010904//EN"
 "http://www.w3.org/TR/2001/REC-SVG-20010904/DTD/svg10.dtd">
<svg version="1.0" xmlns="http://www.w3.org/2000/svg"
 width="500.000000pt" height="500.000000pt" viewBox="0 0 500.000000 500.000000"
 preserveAspectRatio="xMidYMid meet">

<g transform="translate(0.000000,500.000000) scale(0.100000,-0.100000)"
fill="#000000" stroke="none">
<path d="M2411 3144 c1 -16 131 -114 153 -114 234 -4 453 -4 448 1 -12 11
-191 79 -250 95 -65 17 -352 32 -351 18z"/>
<path d="M2182 3115 c-79 -24 -76 -22 -52 -52 11 -16 29 -38 38 -51 17 -22 19
-23 160 -16 78 4 142 11 142 16 0 16 -71 86 -104 102 -41 19 -125 20 -184 1z"/>
<path d="M2009 3082 c-25 -16 -67 -49 -95 -73 -28 -25 -67 -55 -87 -68 -40
-25 -51 -39 -14 -20 28 15 76 51 153 114 33 28 69 55 80 62 10 6 17 12 13 12
-3 1 -25 -12 -50 -27z"/>
<path d="M2035 3051 c-49 -28 -82 -57 -74 -65 8 -8 189 7 189 16 0 4 -15 24
-32 43 l-33 35 -50 -29z"/>
<path d="M2835 3010 l-100 -5 97 -7 c136 -10 286 -37 330 -59 20 -11 55 -36
78 -57 45 -44 49 -42 19 7 -35 57 -24 64 98 59 101 -3 105 -3 63 9 -73 22
-218 43 -330 49 -58 3 -116 6 -130 7 -14 1 -70 0 -125 -3z"/>
<path d="M2961 2931 c-36 -23 43 -94 86 -76 10 5 21 7 26 7 4 -1 7 7 7 19 0
13 -4 18 -12 13 -6 -4 -8 -3 -5 3 4 6 -1 17 -10 24 -14 12 -16 12 -8 0 6 -11
2 -10 -16 2 -26 19 -47 21 -68 8z"/>
<path d="M3090 2915 c0 -52 90 -102 106 -60 4 8 10 12 15 9 5 -3 9 -1 9 3 0
12 -29 51 -30 40 0 -5 -12 1 -26 12 -15 12 -37 21 -50 21 -19 0 -24 -5 -24
-25z"/>
<path d="M3264 2925 c-9 -21 41 -94 72 -105 14 -6 64 -10 111 -10 l86 0 -6 33
-6 32 16 -30 c14 -24 18 -27 21 -12 4 22 -29 78 -36 59 -3 -10 -8 -7 -18 7
-19 27 -74 41 -162 41 -56 0 -74 -4 -78 -15z"/>
<path d="M1740 2890 c-19 -11 -31 -19 -27 -20 11 0 67 29 67 35 0 7 -1 7 -40
-15z"/>
<path d="M2726 2859 c39 -20 56 -65 56 -149 0 -86 -16 -130 -60 -168 l-27 -23
30 11 c42 16 56 29 76 75 21 45 24 112 8 169 -12 45 -59 96 -86 95 -16 0 -16
-1 3 -10z"/>
<path d="M1975 2770 c12 -43 31 -50 145 -50 59 0 149 -3 201 -6 52 -4 92 -4
89 -2 -3 3 -88 11 -189 17 -180 12 -213 18 -239 50 -11 14 -12 13 -7 -9z"/>
<path d="M2088 2683 c45 -2 119 -2 165 0 45 1 8 3 -83 3 -91 0 -128 -2 -82 -3z"/>
<path d="M2870 2640 c0 -37 2 -39 38 -47 20 -4 161 -8 312 -8 286 0 372 9 385
42 10 28 -10 35 -56 21 -31 -9 -108 -13 -256 -12 -203 0 -214 1 -242 22 -25
18 -44 22 -106 22 l-75 0 0 -40z"/>
<path d="M2812 2598 c-13 -26 -38 -56 -55 -68 l-32 -22 54 7 c68 8 138 55 82
55 -16 0 -20 8 -23 38 l-3 37 -23 -47z"/>
<path d="M2000 2604 c104 -17 180 -23 270 -22 69 1 105 3 80 5 -25 2 -140 12
-256 23 -116 11 -217 20 -225 19 -8 -1 51 -12 131 -25z"/>
<path d="M3210 2555 c0 -3 15 -14 33 -25 38 -24 112 -26 161 -6 68 28 53 36
-73 36 -67 0 -121 -2 -121 -5z"/>
<path d="M2557 2423 c-4 -3 -7 -66 -7 -140 0 -126 1 -133 20 -133 19 0 20 7
20 140 0 110 -3 140 -13 140 -8 0 -17 -3 -20 -7z"/>
<path d="M1650 2280 c0 -123 1 -130 20 -130 19 0 20 7 20 130 0 123 -1 130
-20 130 -19 0 -20 -7 -20 -130z"/>
<path d="M2650 2359 c0 -66 24 -62 28 4 2 37 0 47 -12 47 -12 0 -16 -12 -16
-51z"/>
<path d="M3030 2370 c0 -11 -7 -20 -15 -20 -8 0 -15 -7 -15 -15 0 -8 7 -15 15
-15 12 0 15 -14 15 -69 0 -81 15 -104 63 -99 40 4 47 26 10 30 -27 3 -28 5
-31 71 -3 66 -3 67 23 67 16 0 25 6 25 15 0 9 -9 15 -25 15 -18 0 -25 5 -25
20 0 13 -7 20 -20 20 -13 0 -20 -7 -20 -20z"/>
<path d="M1765 2325 c-14 -13 -25 -30 -25 -38 0 -22 32 -45 72 -52 45 -9 69
-32 47 -46 -19 -12 -66 -11 -89 1 -13 7 -21 7 -26 -1 -11 -19 26 -39 71 -39
52 0 85 23 85 59 0 30 -18 42 -83 57 -33 8 -46 32 -26 45 8 6 33 8 57 5 31 -4
42 -2 42 8 0 33 -93 34 -125 1z"/>
<path d="M1950 2250 c0 -82 3 -100 15 -100 11 0 15 12 16 48 2 73 11 95 47
111 34 16 43 41 14 41 -10 0 -28 -7 -40 -16 -20 -14 -22 -14 -22 0 0 9 -7 16
-15 16 -12 0 -15 -18 -15 -100z"/>
<path d="M2118 2337 c-18 -8 -25 -16 -20 -24 6 -10 15 -10 39 -1 40 15 83 -2
83 -32 0 -17 -7 -20 -46 -20 -25 0 -54 -5 -65 -10 -25 -14 -25 -61 -1 -83 22
-20 83 -22 100 -5 9 9 12 9 12 0 0 -7 9 -12 20 -12 18 0 20 7 20 75 0 67 -3
79 -25 100 -27 28 -72 32 -117 12z m102 -115 c0 -10 -5 -23 -12 -30 -17 -17
-77 -15 -84 3 -10 25 16 45 57 45 31 0 39 -4 39 -18z"/>
<path d="M2339 2321 c-23 -24 -29 -38 -29 -74 0 -38 5 -49 31 -71 36 -30 92
-35 128 -10 28 20 14 42 -17 25 -32 -17 -70 -13 -92 9 -34 34 -24 40 60 40 79
0 80 0 80 26 0 39 -50 84 -95 84 -27 0 -44 -8 -66 -29z m111 -21 c33 -33 24
-40 -45 -40 -37 0 -65 4 -65 10 0 19 40 50 65 50 14 0 34 -9 45 -20z"/>
<path d="M2850 2337 c-17 -9 -26 -22 -28 -44 -4 -36 11 -48 75 -61 28 -6 38
-13 38 -27 0 -24 -41 -32 -85 -17 -22 8 -30 7 -34 -4 -14 -36 109 -49 144 -14
41 41 15 81 -62 94 -43 8 -55 21 -37 42 9 11 26 14 57 12 48 -3 69 15 30 26
-36 9 -71 7 -98 -7z"/>
<path d="M3208 2335 c-88 -50 -50 -185 52 -185 124 0 138 182 15 196 -25 3
-50 -1 -67 -11z m97 -40 c30 -30 31 -54 4 -89 -40 -51 -113 -21 -111 46 1 36
31 68 64 68 10 0 30 -11 43 -25z"/>
<path d="M3417 2343 c-4 -3 -7 -48 -7 -100 0 -86 1 -93 20 -93 18 0 20 7 20
63 0 71 5 82 43 96 15 6 27 17 27 26 0 19 -20 19 -48 -1 -20 -14 -22 -14 -22
0 0 16 -21 22 -33 9z"/>
<path d="M3604 2340 c-60 -24 -73 -112 -25 -161 24 -23 38 -29 73 -29 53 0 90
22 71 41 -10 10 -16 10 -25 1 -18 -18 -73 -14 -91 6 -32 35 -21 42 61 42 l79
0 -5 30 c-8 59 -79 94 -138 70z m86 -40 c32 -32 24 -40 -40 -40 -64 0 -73 9
-43 42 21 24 58 23 83 -2z"/>
</g>
</svg>
